<svg xmlns="http://www.w3.org/2000/svg" viewBox="0 0 1920 960" fill="none">

  <defs>
    <radialGradient id="bg" cx="0.25" cy="0.5" r="0.95">
      <stop offset="0%" stop-color="#252525"/>
      <stop offset="100%" stop-color="#0B0B0B"/>
    </radialGradient>
    <filter id="shadow" x="-20%" y="-20%" width="140%" height="140%">
      <feDropShadow dx="0" dy="20" stdDeviation="30" flood-color="#000" flood-opacity="0.5"/>
    </filter>
  </defs>
  <rect width="1920" height="960" fill="url(#bg)"/>
  <g filter="url(#shadow)"><g transform="translate(740, 300) scale(2.638888888888889)"><rect width="144" height="144" rx="14" fill="#0A0A0A"/>
  <rect width="144" height="144" fill="#111"/>
  
  <text x="72" y="13" text-anchor="middle" font-family="-apple-system, Helvetica, sans-serif" font-size="11" font-weight="600" fill="#777">Usage</text>
  <rect x="3" y="16" width="138" height="57" rx="6" fill="#1C1C1C"/>
  <text x="9" y="46" font-family="-apple-system, Helvetica, sans-serif" font-size="27" font-weight="800" fill="#4ADE80">34%</text>
  <rect x="91" y="19" width="50" height="14" rx="7" fill="#2D2D2D"/>
  <text x="116" y="29" text-anchor="middle" font-family="-apple-system, Helvetica, sans-serif" font-size="9" fill="#999">Current</text>
  <rect x="9" y="53" width="126" height="6" rx="2" fill="#222"/>
  <rect x="9" y="53" width="42.8" height="6" rx="2" fill="#4ADE80"/>
  <text x="9" y="69" font-family="-apple-system, Helvetica, sans-serif" font-size="10" fill="#666">Resets in 2h 14m</text>
  <rect x="3" y="77" width="138" height="57" rx="6" fill="#1C1C1C"/>
  <text x="9" y="107" font-family="-apple-system, Helvetica, sans-serif" font-size="27" font-weight="800" fill="#4ADE80">22%</text>
  <rect x="91" y="80" width="50" height="14" rx="7" fill="#2D2D2D"/>
  <text x="116" y="90" text-anchor="middle" font-family="-apple-system, Helvetica, sans-serif" font-size="9" fill="#999">Weekly</text>
  <rect x="9" y="114" width="126" height="6" rx="2" fill="#222"/>
  <rect x="9" y="114" width="27.7" height="6" rx="2" fill="#4ADE80"/>
  <text x="9" y="130" font-family="-apple-system, Helvetica, sans-serif" font-size="10" fill="#666">Resets in 4d 12h</text>
  <text x="72" y="143" text-anchor="middle" font-family="-apple-system, Helvetica, sans-serif" font-size="9" fill="#CC4400">✳ Just updated</text>
</g></g>
  <g filter="url(#shadow)"><g transform="translate(1300, 300) scale(2.638888888888889)"><rect width="144" height="144" rx="14" fill="#0A0A0A"/>
  <rect width="144" height="144" fill="#111"/>
  <text x="72" y="32" text-anchor="middle" font-family="-apple-system, Helvetica, sans-serif" font-size="14" font-weight="600" fill="#777">Next Reset</text>
  <text x="72" y="86" text-anchor="middle" font-family="-apple-system, Helvetica, sans-serif" font-size="38" font-weight="800" fill="#4ADE80">2h 14m</text>
  <rect x="14" y="97" width="116" height="8" rx="3" fill="#222"/>
  <rect x="14" y="97" width="39.4" height="8" rx="3" fill="#4ADE80"/>
  <text x="72" y="126" text-anchor="middle" font-family="-apple-system, Helvetica, sans-serif" font-size="13" fill="#888">session · 34%</text>
</g></g>
  
    <g transform="translate(1180, 460)">
      <path d="M 0 30 L 60 30 M 50 18 L 60 30 L 50 42" stroke="#4ADE80" stroke-width="4" fill="none" stroke-linecap="round" stroke-linejoin="round"/>
      <text x="30" y="-10" text-anchor="middle" font-family="-apple-system, BlinkMacSystemFont, 'Helvetica Neue', Helvetica, Arial, sans-serif" font-size="22" font-weight="600" fill="#9CA3AF">Press</text>
    </g>
  <g font-family="-apple-system, BlinkMacSystemFont, 'Helvetica Neue', Helvetica, Arial, sans-serif" fill="#FFFFFF">
    <text x="960" y="160" text-anchor="middle" font-size="68" font-weight="800">Two views, one press.</text>
    <text x="960" y="225" text-anchor="middle" font-size="28" font-weight="400" fill="#9CA3AF">Tap the key (or the dial on Stream Deck +) to cycle.</text>

    <text x="930"  y="800" text-anchor="middle" font-size="26" font-weight="600" fill="#FFFFFF">Combined</text>
    <text x="930"  y="838" text-anchor="middle" font-size="22" font-weight="400" fill="#9CA3AF">session + weekly</text>

    <text x="1490" y="800" text-anchor="middle" font-size="26" font-weight="600" fill="#FFFFFF">Next Reset</text>
    <text x="1490" y="838" text-anchor="middle" font-size="22" font-weight="400" fill="#9CA3AF">countdown to soonest window</text>
  </g>
</svg>