<svg xmlns="http://www.w3.org/2000/svg" viewBox="0 0 1920 960" fill="none">

  <defs>
    <radialGradient id="bg" cx="0.25" cy="0.5" r="0.95">
      <stop offset="0%" stop-color="#252525"/>
      <stop offset="100%" stop-color="#0B0B0B"/>
    </radialGradient>
    <filter id="shadow" x="-20%" y="-20%" width="140%" height="140%">
      <feDropShadow dx="0" dy="20" stdDeviation="30" flood-color="#000" flood-opacity="0.5"/>
    </filter>
  </defs>
  <rect width="1920" height="960" fill="url(#bg)"/>
  <g filter="url(#shadow)"><g transform="translate(880, 240) scale(3.0555555555555554)"><rect width="144" height="144" rx="14" fill="#0A0A0A"/>
  <rect width="144" height="144" fill="#111"/>
  
  <text x="72" y="13" text-anchor="middle" font-family="-apple-system, Helvetica, sans-serif" font-size="11" font-weight="600" fill="#777">Usage</text>
  <rect x="3" y="16" width="138" height="57" rx="6" fill="#1C1C1C"/>
  <text x="9" y="46" font-family="-apple-system, Helvetica, sans-serif" font-size="27" font-weight="800" fill="#4ADE80">34%</text>
  <rect x="91" y="19" width="50" height="14" rx="7" fill="#2D2D2D"/>
  <text x="116" y="29" text-anchor="middle" font-family="-apple-system, Helvetica, sans-serif" font-size="9" fill="#999">Current</text>
  <rect x="9" y="53" width="126" height="6" rx="2" fill="#222"/>
  <rect x="9" y="53" width="42.8" height="6" rx="2" fill="#4ADE80"/>
  <text x="9" y="69" font-family="-apple-system, Helvetica, sans-serif" font-size="10" fill="#666">Resets in 2h 14m</text>
  <rect x="3" y="77" width="138" height="57" rx="6" fill="#1C1C1C"/>
  <text x="9" y="107" font-family="-apple-system, Helvetica, sans-serif" font-size="27" font-weight="800" fill="#4ADE80">22%</text>
  <rect x="91" y="80" width="50" height="14" rx="7" fill="#2D2D2D"/>
  <text x="116" y="90" text-anchor="middle" font-family="-apple-system, Helvetica, sans-serif" font-size="9" fill="#999">Weekly</text>
  <rect x="9" y="114" width="126" height="6" rx="2" fill="#222"/>
  <rect x="9" y="114" width="27.7" height="6" rx="2" fill="#4ADE80"/>
  <text x="9" y="130" font-family="-apple-system, Helvetica, sans-serif" font-size="10" fill="#666">Resets in 4d 12h</text>
  <text x="72" y="143" text-anchor="middle" font-family="-apple-system, Helvetica, sans-serif" font-size="9" fill="#CC4400">✳ Just updated</text>
</g></g>
  <g filter="url(#shadow)"><g transform="translate(1400, 240) scale(3.0555555555555554)"><rect width="144" height="144" rx="14" fill="#0A0A0A"/>
  <rect width="144" height="144" fill="#111"/>
  
  <text x="72" y="13" text-anchor="middle" font-family="-apple-system, Helvetica, sans-serif" font-size="11" font-weight="600" fill="#777">Usage</text>
  <rect x="3" y="16" width="138" height="57" rx="6" fill="#1C1C1C"/>
  <text x="9" y="46" font-family="-apple-system, Helvetica, sans-serif" font-size="27" font-weight="800" fill="#F87171">89%</text>
  <rect x="91" y="19" width="50" height="14" rx="7" fill="#2D2D2D"/>
  <text x="116" y="29" text-anchor="middle" font-family="-apple-system, Helvetica, sans-serif" font-size="9" fill="#999">Current</text>
  <rect x="9" y="53" width="126" height="6" rx="2" fill="#222"/>
  <rect x="9" y="53" width="112.1" height="6" rx="2" fill="#F87171"/>
  <text x="9" y="69" font-family="-apple-system, Helvetica, sans-serif" font-size="10" fill="#666">Resets in 18m</text>
  <rect x="3" y="77" width="138" height="57" rx="6" fill="#1C1C1C"/>
  <text x="9" y="107" font-family="-apple-system, Helvetica, sans-serif" font-size="27" font-weight="800" fill="#FACC15">76%</text>
  <rect x="91" y="80" width="50" height="14" rx="7" fill="#2D2D2D"/>
  <text x="116" y="90" text-anchor="middle" font-family="-apple-system, Helvetica, sans-serif" font-size="9" fill="#999">Weekly</text>
  <rect x="9" y="114" width="126" height="6" rx="2" fill="#222"/>
  <rect x="9" y="114" width="95.8" height="6" rx="2" fill="#FACC15"/>
  <text x="9" y="130" font-family="-apple-system, Helvetica, sans-serif" font-size="10" fill="#666">Resets in 2d 6h</text>
  <text x="72" y="143" text-anchor="middle" font-family="-apple-system, Helvetica, sans-serif" font-size="9" fill="#CC4400">✳ Just updated</text>
</g></g>
  <g font-family="-apple-system, BlinkMacSystemFont, 'Helvetica Neue', Helvetica, Arial, sans-serif" fill="#FFFFFF">
    <text x="160" y="360" font-size="72" font-weight="800">Color-coded</text>
    <text x="160" y="450" font-size="72" font-weight="800">warnings.</text>
    <text x="160" y="555" font-size="30" font-weight="400" fill="#9CA3AF">Green while you have headroom,</text>
    <text x="160" y="595" font-size="30" font-weight="400" fill="#9CA3AF">yellow as you approach the limit,</text>
    <text x="160" y="635" font-size="30" font-weight="400" fill="#9CA3AF">red when you're close to capped.</text>
    <rect x="160" y="690" width="80" height="4" rx="2" fill="#F87171"/>
  </g>
</svg>